# xmcd CD database file generated by Grip 2.96
# 
# Track frame offsets:
#       150
#       13887
#       27400
#       40847
#       54610
#       67975
#       80772
#       93592
#       106952
#       120092
#       132405
#       144945
#       157875
#       171775
#       184150
#       198167
#       211115
#       225002
# 
# Disc length: 3168 seconds
# 
# Revision: 0
# Processed by: cddbd v1.4PL0 Copyright (c) Steve Scherf et al.
# Submitted via: Grip 2.96
# 
DISCID=e30c5e12
DTITLE=Sonny Boy Williamson - Nothing But The Blues
DYEAR=1900
DGENRE=
TTITLE0=Good Morning School Girl
TTITLE1=Jackson Blues
TTITLE2=I'm Tired Trucking My Blues Away
TTITLE3=Moonshine
TTITLE4=Whiskey Headed Blues
TTITLE5=Little Low Woman Blues
TTITLE6=Good Cravy
TTITLE7=Thinking My Blues Away
TTITLE8=Tell Me, Baby
TTITLE9=She Don't Love Me That Way
TTITLE10=Life Time Blues
TTITLE11=I' Been Dealing With The Devil
TTITLE12=Western Union Man
TTITLE13=New Early In The Morning
TTITLE14=Coal And Iceman Blues
TTITLE15=Sonny Boy's Jump
TTITLE16=Springtime Blues
TTITLE17=I Have Got To Go
EXTD=
EXTT0=
EXTT1=
EXTT2=
EXTT3=
EXTT4=
EXTT5=
EXTT6=
EXTT7=
EXTT8=
EXTT9=
EXTT10=
EXTT11=
EXTT12=
EXTT13=
EXTT14=
EXTT15=
EXTT16=
EXTT17=
PLAYORDER=
